<?xml version="1.0" encoding="UTF-8"?>
<svg xmlns="http://www.w3.org/2000/svg" viewBox="0 0 100 100">
    <!-- Кольори для різних типів місцевості -->
    <defs>
        <!-- Місто (коричневий) -->
        <linearGradient id="cityGradient" x1="0%" y1="0%" x2="100%" y2="100%">
            <stop offset="0%" style="stop-color:#8d6e63"/>
            <stop offset="100%" style="stop-color:#6d4c41"/>
        </linearGradient>
        
        <!-- Поле (зелений) -->
        <linearGradient id="fieldGradient" x1="0%" y1="0%" x2="100%" y2="100%">
            <stop offset="0%" style="stop-color:#7cb342"/>
            <stop offset="100%" style="stop-color:#558b2f"/>
        </linearGradient>
        
        <!-- Дорога (сірий) -->
        <linearGradient id="roadGradient" x1="0%" y1="0%" x2="100%" y2="100%">
            <stop offset="0%" style="stop-color:#bdbdbd"/>
            <stop offset="100%" style="stop-color:#9e9e9e"/>
        </linearGradient>
    </defs>

    <!-- Фон (білий) -->
    <rect width="100" height="100" fill="white"/>

    <!-- Трикутники для кожної сторони -->
    <!-- Верхній трикутник (C - місто) -->
    <path class="top" d="M0,0 L100,0 L50,50 Z" fill="url(#cityGradient)"/>
    
    <!-- Правий трикутник (C - місто) -->
    <path class="right" d="M100,0 L100,100 L50,50 Z" fill="url(#cityGradient)"/>
    
    <!-- Нижній трикутник (F - поле) -->
    <path class="bottom" d="M100,100 L0,100 L50,50 Z" fill="url(#fieldGradient)"/>
    
    <!-- Лівий трикутник (R - дорога) -->
    <path class="left" d="M0,100 L0,0 L50,50 Z" fill="url(#roadGradient)"/>

    <!-- Центральна точка -->
    <circle cx="50" cy="50" r="3" fill="#424242"/>

    <!-- Додаткові деталі для міста вгорі -->
    <path d="M20,0 v10 h10 v-5 h10 v5 h10 v-10" fill="#4e342e"/>
    
    <!-- Додаткові деталі для міста справа -->
    <path d="M100,20 h-10 v10 h5 v10 h-5 v10" fill="#4e342e"/>
    
    <!-- Додаткові деталі для дороги -->
    <path d="M0,40 h15 v20 h-15" fill="#757575" stroke="#616161" stroke-width="1"/>
    
    <!-- З'єднання міст -->
    <path d="M50,50 L90,10" stroke="#4e342e" stroke-width="3" fill="none"/>
</svg> 